<mxfile host="app.diagrams.net" modified="2021-02-23T08:38:44.650Z" agent="5.0 (Macintosh; Intel Mac OS X 10_11_6) AppleWebKit/537.36 (KHTML, like Gecko) Chrome/88.0.4324.182 Safari/537.36" etag="MztNz1w8BC8ezjc4XGhH" version="14.4.2" type="github">
  <diagram id="zV-b_AFfcwhKkFdipuun" name="Page-1">
    <mxGraphModel dx="1299" dy="715" grid="1" gridSize="10" guides="1" tooltips="1" connect="1" arrows="1" fold="1" page="1" pageScale="3.5" pageWidth="827" pageHeight="1169" math="0" shadow="0">
      <root>
        <mxCell id="0" />
        <mxCell id="1" parent="0" />
        <mxCell id="SEhgnILJFAIvdyu6qOE7-8" value="" style="group" vertex="1" connectable="0" parent="1">
          <mxGeometry x="110" y="420" width="410" height="140" as="geometry" />
        </mxCell>
        <mxCell id="SEhgnILJFAIvdyu6qOE7-1" value="" style="rounded=0;whiteSpace=wrap;html=1;strokeColor=none;fillColor=#6600CC;shadow=1;glass=0;" vertex="1" parent="SEhgnILJFAIvdyu6qOE7-8">
          <mxGeometry width="410" height="140" as="geometry" />
        </mxCell>
        <mxCell id="SEhgnILJFAIvdyu6qOE7-2" value="&lt;font style=&quot;font-size: 15px&quot; color=&quot;#ffffff&quot;&gt;Web端&lt;/font&gt;" style="text;html=1;strokeColor=none;fillColor=none;align=center;verticalAlign=middle;whiteSpace=wrap;rounded=0;" vertex="1" parent="SEhgnILJFAIvdyu6qOE7-8">
          <mxGeometry x="20" y="10" width="60" height="20" as="geometry" />
        </mxCell>
        <mxCell id="SEhgnILJFAIvdyu6qOE7-3" value="&lt;font style=&quot;font-size: 16px&quot; color=&quot;#ffffff&quot;&gt;JavaScript&lt;/font&gt;" style="rounded=1;whiteSpace=wrap;html=1;fillColor=#9933FF;strokeColor=none;shadow=1;" vertex="1" parent="SEhgnILJFAIvdyu6qOE7-8">
          <mxGeometry x="20" y="40" width="110" height="40" as="geometry" />
        </mxCell>
        <mxCell id="SEhgnILJFAIvdyu6qOE7-4" value="&lt;font style=&quot;font-size: 16px&quot; color=&quot;#ffffff&quot;&gt;AJAX&lt;/font&gt;" style="rounded=1;whiteSpace=wrap;html=1;fillColor=#9933FF;strokeColor=none;shadow=1;" vertex="1" parent="SEhgnILJFAIvdyu6qOE7-8">
          <mxGeometry x="20" y="90" width="110" height="40" as="geometry" />
        </mxCell>
        <mxCell id="SEhgnILJFAIvdyu6qOE7-5" value="&lt;font color=&quot;#ffffff&quot;&gt;&lt;span style=&quot;font-size: 16px&quot;&gt;HTML5&lt;/span&gt;&lt;/font&gt;" style="rounded=1;whiteSpace=wrap;html=1;fillColor=#9933FF;strokeColor=none;shadow=1;" vertex="1" parent="SEhgnILJFAIvdyu6qOE7-8">
          <mxGeometry x="160" y="40" width="110" height="40" as="geometry" />
        </mxCell>
        <mxCell id="SEhgnILJFAIvdyu6qOE7-6" value="&lt;font style=&quot;font-size: 16px&quot; color=&quot;#ffffff&quot;&gt;CSS&lt;/font&gt;" style="rounded=1;whiteSpace=wrap;html=1;fillColor=#9933FF;strokeColor=none;shadow=1;" vertex="1" parent="SEhgnILJFAIvdyu6qOE7-8">
          <mxGeometry x="160" y="90" width="110" height="40" as="geometry" />
        </mxCell>
        <mxCell id="SEhgnILJFAIvdyu6qOE7-7" value="&lt;font style=&quot;font-size: 16px&quot; color=&quot;#ffffff&quot;&gt;WebSocket&lt;/font&gt;" style="rounded=1;whiteSpace=wrap;html=1;fillColor=#9933FF;strokeColor=none;shadow=1;" vertex="1" parent="SEhgnILJFAIvdyu6qOE7-8">
          <mxGeometry x="290" y="40" width="110" height="90" as="geometry" />
        </mxCell>
        <mxCell id="SEhgnILJFAIvdyu6qOE7-10" value="" style="rounded=0;whiteSpace=wrap;html=1;strokeColor=none;fillColor=#6600CC;shadow=1;glass=0;" vertex="1" parent="1">
          <mxGeometry x="540" y="420" width="290" height="140" as="geometry" />
        </mxCell>
        <mxCell id="SEhgnILJFAIvdyu6qOE7-17" value="" style="group" vertex="1" connectable="0" parent="1">
          <mxGeometry x="560" y="430" width="250" height="120" as="geometry" />
        </mxCell>
        <mxCell id="SEhgnILJFAIvdyu6qOE7-11" value="&lt;font style=&quot;font-size: 15px&quot; color=&quot;#ffffff&quot;&gt;PC端&lt;/font&gt;" style="text;html=1;strokeColor=none;fillColor=none;align=center;verticalAlign=middle;whiteSpace=wrap;rounded=0;" vertex="1" parent="SEhgnILJFAIvdyu6qOE7-17">
          <mxGeometry width="60" height="20" as="geometry" />
        </mxCell>
        <mxCell id="SEhgnILJFAIvdyu6qOE7-12" value="&lt;font style=&quot;font-size: 16px&quot; color=&quot;#ffffff&quot;&gt;MAC&lt;/font&gt;" style="rounded=1;whiteSpace=wrap;html=1;fillColor=#9933FF;strokeColor=none;shadow=1;" vertex="1" parent="SEhgnILJFAIvdyu6qOE7-17">
          <mxGeometry y="30" width="110" height="40" as="geometry" />
        </mxCell>
        <mxCell id="SEhgnILJFAIvdyu6qOE7-13" value="&lt;font style=&quot;font-size: 16px&quot; color=&quot;#ffffff&quot;&gt;Windows&lt;/font&gt;" style="rounded=1;whiteSpace=wrap;html=1;fillColor=#9933FF;strokeColor=none;shadow=1;" vertex="1" parent="SEhgnILJFAIvdyu6qOE7-17">
          <mxGeometry y="80" width="110" height="40" as="geometry" />
        </mxCell>
        <mxCell id="SEhgnILJFAIvdyu6qOE7-14" value="&lt;font color=&quot;#ffffff&quot;&gt;&lt;span style=&quot;font-size: 16px&quot;&gt;Centos&lt;/span&gt;&lt;/font&gt;" style="rounded=1;whiteSpace=wrap;html=1;fillColor=#9933FF;strokeColor=none;shadow=1;" vertex="1" parent="SEhgnILJFAIvdyu6qOE7-17">
          <mxGeometry x="140" y="30" width="110" height="40" as="geometry" />
        </mxCell>
        <mxCell id="SEhgnILJFAIvdyu6qOE7-15" value="&lt;font style=&quot;font-size: 16px&quot; color=&quot;#ffffff&quot;&gt;Ubuntu&lt;/font&gt;" style="rounded=1;whiteSpace=wrap;html=1;fillColor=#9933FF;strokeColor=none;shadow=1;" vertex="1" parent="SEhgnILJFAIvdyu6qOE7-17">
          <mxGeometry x="140" y="80" width="110" height="40" as="geometry" />
        </mxCell>
        <mxCell id="SEhgnILJFAIvdyu6qOE7-21" value="" style="rounded=0;whiteSpace=wrap;html=1;strokeColor=none;fillColor=#6600CC;shadow=1;glass=0;" vertex="1" parent="1">
          <mxGeometry x="850" y="420" width="280" height="140" as="geometry" />
        </mxCell>
        <mxCell id="SEhgnILJFAIvdyu6qOE7-22" value="&lt;font style=&quot;font-size: 15px&quot; color=&quot;#ffffff&quot;&gt;移动端&lt;/font&gt;" style="text;html=1;strokeColor=none;fillColor=none;align=center;verticalAlign=middle;whiteSpace=wrap;rounded=0;" vertex="1" parent="1">
          <mxGeometry x="870" y="430" width="60" height="20" as="geometry" />
        </mxCell>
        <mxCell id="SEhgnILJFAIvdyu6qOE7-23" value="&lt;font style=&quot;font-size: 16px&quot; color=&quot;#ffffff&quot;&gt;Android&lt;/font&gt;" style="rounded=1;whiteSpace=wrap;html=1;fillColor=#9933FF;strokeColor=none;shadow=1;" vertex="1" parent="1">
          <mxGeometry x="870" y="460" width="110" height="40" as="geometry" />
        </mxCell>
        <mxCell id="SEhgnILJFAIvdyu6qOE7-24" value="&lt;font style=&quot;font-size: 16px&quot; color=&quot;#ffffff&quot;&gt;IOS&lt;/font&gt;" style="rounded=1;whiteSpace=wrap;html=1;fillColor=#9933FF;strokeColor=none;shadow=1;" vertex="1" parent="1">
          <mxGeometry x="870" y="510" width="110" height="40" as="geometry" />
        </mxCell>
        <mxCell id="SEhgnILJFAIvdyu6qOE7-28" value="&lt;font style=&quot;font-size: 16px&quot; color=&quot;#ffffff&quot;&gt;小程序&lt;/font&gt;" style="rounded=1;whiteSpace=wrap;html=1;fillColor=#9933FF;strokeColor=none;shadow=1;" vertex="1" parent="1">
          <mxGeometry x="1000" y="460" width="110" height="40" as="geometry" />
        </mxCell>
        <mxCell id="SEhgnILJFAIvdyu6qOE7-41" value="" style="group" vertex="1" connectable="0" parent="1">
          <mxGeometry x="110" y="640" width="1020" height="90" as="geometry" />
        </mxCell>
        <mxCell id="SEhgnILJFAIvdyu6qOE7-31" value="" style="rounded=0;whiteSpace=wrap;html=1;strokeColor=none;fillColor=#6600CC;shadow=1;glass=0;" vertex="1" parent="SEhgnILJFAIvdyu6qOE7-41">
          <mxGeometry width="1020" height="90" as="geometry" />
        </mxCell>
        <mxCell id="SEhgnILJFAIvdyu6qOE7-32" value="&lt;font style=&quot;font-size: 17px&quot; color=&quot;#ffffff&quot;&gt;接口层&lt;/font&gt;" style="text;html=1;strokeColor=none;fillColor=none;align=center;verticalAlign=middle;whiteSpace=wrap;rounded=0;" vertex="1" parent="SEhgnILJFAIvdyu6qOE7-41">
          <mxGeometry x="10.996097560975613" y="5" width="149.26829268292684" height="20" as="geometry" />
        </mxCell>
        <mxCell id="SEhgnILJFAIvdyu6qOE7-33" value="&lt;font style=&quot;font-size: 16px&quot; color=&quot;#ffffff&quot;&gt;API网关&lt;/font&gt;" style="rounded=1;whiteSpace=wrap;html=1;fillColor=#9933FF;strokeColor=none;shadow=1;" vertex="1" parent="SEhgnILJFAIvdyu6qOE7-41">
          <mxGeometry x="20" y="32" width="460" height="40" as="geometry" />
        </mxCell>
        <mxCell id="SEhgnILJFAIvdyu6qOE7-39" value="&lt;font style=&quot;font-size: 16px&quot; color=&quot;#ffffff&quot;&gt;Nginx负载均衡集群 + KeepAlive + LVS&lt;/font&gt;" style="rounded=1;whiteSpace=wrap;html=1;fillColor=#9933FF;strokeColor=none;shadow=1;" vertex="1" parent="SEhgnILJFAIvdyu6qOE7-41">
          <mxGeometry x="520" y="32" width="460" height="40" as="geometry" />
        </mxCell>
        <mxCell id="SEhgnILJFAIvdyu6qOE7-47" value="" style="shape=flexArrow;endArrow=classic;startArrow=classic;html=1;fillColor=#9933FF;strokeColor=none;shadow=1;rounded=0;" edge="1" parent="1">
          <mxGeometry width="50" height="50" relative="1" as="geometry">
            <mxPoint x="300" y="630" as="sourcePoint" />
            <mxPoint x="300" y="570" as="targetPoint" />
          </mxGeometry>
        </mxCell>
        <mxCell id="SEhgnILJFAIvdyu6qOE7-48" value="" style="shape=flexArrow;endArrow=classic;startArrow=classic;html=1;fillColor=#9933FF;strokeColor=none;shadow=1;rounded=0;" edge="1" parent="1">
          <mxGeometry width="50" height="50" relative="1" as="geometry">
            <mxPoint x="960" y="630" as="sourcePoint" />
            <mxPoint x="960" y="570" as="targetPoint" />
          </mxGeometry>
        </mxCell>
        <mxCell id="SEhgnILJFAIvdyu6qOE7-49" value="" style="shape=flexArrow;endArrow=classic;startArrow=classic;html=1;fillColor=#9933FF;strokeColor=none;shadow=1;rounded=0;" edge="1" parent="1">
          <mxGeometry width="50" height="50" relative="1" as="geometry">
            <mxPoint x="670" y="630" as="sourcePoint" />
            <mxPoint x="670" y="570" as="targetPoint" />
          </mxGeometry>
        </mxCell>
        <mxCell id="SEhgnILJFAIvdyu6qOE7-43" value="" style="rounded=0;whiteSpace=wrap;html=1;strokeColor=none;fillColor=#6600CC;shadow=1;glass=0;" vertex="1" parent="1">
          <mxGeometry x="111" y="1060" width="1020" height="160" as="geometry" />
        </mxCell>
        <mxCell id="SEhgnILJFAIvdyu6qOE7-44" value="&lt;font style=&quot;font-size: 17px&quot; color=&quot;#ffffff&quot;&gt;持久层&lt;/font&gt;" style="text;html=1;strokeColor=none;fillColor=none;align=center;verticalAlign=middle;whiteSpace=wrap;rounded=0;" vertex="1" parent="1">
          <mxGeometry x="110.99609756097561" y="1065" width="149.26829268292684" height="20" as="geometry" />
        </mxCell>
        <mxCell id="SEhgnILJFAIvdyu6qOE7-45" value="&lt;font style=&quot;font-size: 16px&quot; color=&quot;#ffffff&quot;&gt;API网关&lt;/font&gt;" style="rounded=1;whiteSpace=wrap;html=1;fillColor=#9933FF;strokeColor=none;shadow=1;" vertex="1" parent="1">
          <mxGeometry x="120" y="1092" width="460" height="40" as="geometry" />
        </mxCell>
        <mxCell id="SEhgnILJFAIvdyu6qOE7-46" value="&lt;font style=&quot;font-size: 16px&quot; color=&quot;#ffffff&quot;&gt;Nginx负载均衡集群 + KeepAlive + LVS&lt;/font&gt;" style="rounded=1;whiteSpace=wrap;html=1;fillColor=#9933FF;strokeColor=none;shadow=1;" vertex="1" parent="1">
          <mxGeometry x="620" y="1092" width="460" height="40" as="geometry" />
        </mxCell>
      </root>
    </mxGraphModel>
  </diagram>
</mxfile>
